<svg width="21" height="20" viewBox="0 0 21 20" fill="none" xmlns="http://www.w3.org/2000/svg">
<path d="M10.375 17.5V5.83332M10.375 5.83332C10.375 5.3913 10.5506 4.96737 10.8631 4.65481C11.1757 4.34225 11.5996 4.16666 12.0416 4.16666H18.2083C18.274 4.16666 18.339 4.17959 18.3996 4.20472C18.4603 4.22984 18.5154 4.26667 18.5618 4.3131C18.6083 4.35953 18.6451 4.41465 18.6702 4.47531C18.6954 4.53598 18.7083 4.601 18.7083 4.66666V15.595M10.375 5.83332C10.375 5.3913 10.1994 4.96737 9.8868 4.65481C9.57424 4.34225 9.15032 4.16666 8.70829 4.16666H2.54163C2.40902 4.16666 2.28184 4.21933 2.18807 4.3131C2.0943 4.40687 2.04163 4.53405 2.04163 4.66666V15.595M12.0416 15.8333H18.7083M8.70829 15.8333H2.04163" stroke="white" stroke-width="1.33333" stroke-linecap="round"/>
<path d="M12.0416 15.8333C11.5996 15.8333 11.1757 16.0089 10.8631 16.3215C10.5506 16.634 10.375 17.058 10.375 17.5C10.375 17.058 10.1994 16.634 9.88682 16.3215C9.57426 16.0089 9.15034 15.8333 8.70831 15.8333" stroke="white" stroke-width="1.33333" stroke-linecap="round" stroke-linejoin="round"/>
</svg>
