<svg width="20" height="20" viewBox="0 0 20 20" fill="none" xmlns="http://www.w3.org/2000/svg">
<path d="M11.6667 17V12.1667C11.6667 12.0341 11.7193 11.9069 11.8131 11.8131C11.9069 11.7193 12.0341 11.6667 12.1667 11.6667H17C17.1326 11.6667 17.2598 11.7193 17.3536 11.8131C17.4473 11.9069 17.5 12.0341 17.5 12.1667V17C17.5 17.1326 17.4473 17.2598 17.3536 17.3536C17.2598 17.4473 17.1326 17.5 17 17.5H12.1667C12.0341 17.5 11.9069 17.4473 11.8131 17.3536C11.7193 17.2598 11.6667 17.1326 11.6667 17ZM2.5 17V12.1667C2.5 12.0341 2.55268 11.9069 2.64645 11.8131C2.74021 11.7193 2.86739 11.6667 3 11.6667H7.83333C7.96594 11.6667 8.09312 11.7193 8.18689 11.8131C8.28066 11.9069 8.33333 12.0341 8.33333 12.1667V17C8.33333 17.1326 8.28066 17.2598 8.18689 17.3536C8.09312 17.4473 7.96594 17.5 7.83333 17.5H3C2.86739 17.5 2.74021 17.4473 2.64645 17.3536C2.55268 17.2598 2.5 17.1326 2.5 17ZM11.6667 7.83333V3C11.6667 2.86739 11.7193 2.74021 11.8131 2.64645C11.9069 2.55268 12.0341 2.5 12.1667 2.5H17C17.1326 2.5 17.2598 2.55268 17.3536 2.64645C17.4473 2.74021 17.5 2.86739 17.5 3V7.83333C17.5 7.96594 17.4473 8.09312 17.3536 8.18689C17.2598 8.28066 17.1326 8.33333 17 8.33333H12.1667C12.0341 8.33333 11.9069 8.28066 11.8131 8.18689C11.7193 8.09312 11.6667 7.96594 11.6667 7.83333ZM2.5 7.83333V3C2.5 2.86739 2.55268 2.74021 2.64645 2.64645C2.74021 2.55268 2.86739 2.5 3 2.5H7.83333C7.96594 2.5 8.09312 2.55268 8.18689 2.64645C8.28066 2.74021 8.33333 2.86739 8.33333 3V7.83333C8.33333 7.96594 8.28066 8.09312 8.18689 8.18689C8.09312 8.28066 7.96594 8.33333 7.83333 8.33333H3C2.86739 8.33333 2.74021 8.28066 2.64645 8.18689C2.55268 8.09312 2.5 7.96594 2.5 7.83333Z" stroke="white" stroke-width="1.33333"/>
</svg>
