<svg width="16" height="16" viewBox="0 0 16 16" fill="none" xmlns="http://www.w3.org/2000/svg">
<path d="M14 5.06667V13.6C14 13.7061 13.9578 13.8078 13.8828 13.8828C13.8078 13.9579 13.7061 14 13.6 14H5.06666C4.96057 14 4.85883 13.9579 4.78381 13.8828C4.7088 13.8078 4.66666 13.7061 4.66666 13.6V5.06667C4.66666 4.96058 4.7088 4.85884 4.78381 4.78383C4.85883 4.70881 4.96057 4.66667 5.06666 4.66667H13.6C13.7061 4.66667 13.8078 4.70881 13.8828 4.78383C13.9578 4.85884 14 4.96058 14 5.06667Z" stroke="#32235A" stroke-width="1.06667" stroke-linecap="round" stroke-linejoin="round"/>
<path d="M12 2.66667H3.06666C2.96057 2.66667 2.85883 2.70881 2.78381 2.78383C2.7088 2.85884 2.66666 2.96058 2.66666 3.06667V12M8.60599 7.69667C8.54526 7.66018 8.47594 7.64048 8.4051 7.63958C8.33426 7.63867 8.26445 7.6566 8.20281 7.69152C8.14117 7.72644 8.08992 7.77711 8.05428 7.83833C8.01864 7.89956 7.99991 7.96916 7.99999 8.04V10.6267C7.99991 10.6975 8.01864 10.7671 8.05428 10.8283C8.08992 10.8896 8.14117 10.9402 8.20281 10.9752C8.26445 11.0101 8.33426 11.028 8.4051 11.0271C8.47594 11.0262 8.54526 11.0065 8.60599 10.97L10.7613 9.67667C10.8207 9.64117 10.8699 9.59088 10.904 9.5307C10.9381 9.47052 10.9561 9.40252 10.9561 9.33333C10.9561 9.26415 10.9381 9.19615 10.904 9.13597C10.8699 9.07579 10.8207 9.0255 10.7613 8.99L8.60599 7.69667Z" stroke="#32235A" stroke-width="1.06667" stroke-linecap="round" stroke-linejoin="round"/>
</svg>
